<svg xmlns="http://www.w3.org/2000/svg" viewBox="0 0 36 40" fill="none">
  <!-- Shield background -->
  <path d="M2 2 L34 2 L34 26 Q34 38 18 40 Q2 38 2 26 Z" fill="#0F1F47"/>
  <!-- Shield inner gradient effect -->
  <path d="M4 4 L32 4 L32 26 Q32 36 18 38 Q4 36 4 26 Z" fill="#1A2F5A"/>
  <!-- Gold border -->
  <path d="M2 2 L34 2 L34 26 Q34 38 18 40 Q2 38 2 26 Z" fill="none" stroke="#F59E0B" stroke-width="2"/>
  <!-- Gold inner border -->
  <path d="M5 5 L31 5 L31 26 Q31 36 18 37.5 Q5 36 5 26 Z" fill="none" stroke="#F59E0B" stroke-width="0.5" opacity="0.5"/>
  <!-- Football -->
  <circle cx="18" cy="22" r="9" fill="none" stroke="white" stroke-width="1.5"/>
  <circle cx="18" cy="22" r="3" fill="white"/>
  <!-- Pentagon patches -->
  <path d="M15 18 L18 14 L21 18" fill="none" stroke="white" stroke-width="1.2"/>
  <path d="M15 26 L18 30 L21 26" fill="none" stroke="white" stroke-width="1.2"/>
  <path d="M11 22 L14 18 M11 22 L14 26" fill="none" stroke="white" stroke-width="1.2"/>
  <path d="M25 22 L22 18 M25 22 L22 26" fill="none" stroke="white" stroke-width="1.2"/>
  <!-- Stars at top -->
  <text x="18" y="10" text-anchor="middle" fill="#F59E0B" font-size="7" font-family="serif">★</text>
  <text x="9" y="9" text-anchor="middle" fill="#F59E0B" font-size="5" font-family="serif">★</text>
  <text x="27" y="9" text-anchor="middle" fill="#F59E0B" font-size="5" font-family="serif">★</text>
</svg>
